<svg width="96" height="96" viewBox="0 0 96 96" fill="none" xmlns="http://www.w3.org/2000/svg">
<path d="M70 55.5C70 67.9264 60.1503 78 48 78C35.8497 78 26 67.9264 26 55.5C26 43.0736 35.8497 18 48 18C60.1503 18 70 43.0736 70 55.5Z" fill="#F2EB76"/>
<path fill-rule="evenodd" clip-rule="evenodd" d="M72 55.5C72 68.9884 61.297 80 48 80C34.703 80 24 68.9884 24 55.5C24 48.8947 26.5764 39.2081 30.6613 31.1829C32.712 27.1539 35.2018 23.4244 38.0464 20.6741C40.8799 17.9345 44.246 16 48 16C51.754 16 55.1201 17.9345 57.9536 20.6741C60.7982 23.4244 63.288 27.1539 65.3387 31.1829C69.4236 39.2081 72 48.8947 72 55.5ZM48 78C60.1503 78 70 67.9264 70 55.5C70 43.0736 60.1503 18 48 18C35.8497 18 26 43.0736 26 55.5C26 67.9264 35.8497 78 48 78Z" fill="#538642"/>
<path fill-rule="evenodd" clip-rule="evenodd" d="M48 78C60.1503 78 70 67.9264 70 55.5C70 43.0736 60.1503 18 48 18C35.8497 18 26 43.0736 26 55.5C26 67.9264 35.8497 78 48 78ZM48 76C59.0457 76 68 66.7659 68 55.375C68 43.9841 59.0457 21 48 21C36.9543 21 28 43.9841 28 55.375C28 66.7659 36.9543 76 48 76Z" fill="#D9DE2E"/>
<path d="M63.4625 67.3309C62.6895 68.1767 61.3771 68.2356 60.5314 67.4625C59.6856 66.6894 59.6267 65.3771 60.3998 64.5314C61.1729 63.6856 62.4852 63.6267 63.3309 64.3998C64.1767 65.1728 64.2356 66.4852 63.4625 67.3309Z" fill="#C4CB29"/>
<path d="M55.4625 74.3309C54.6895 75.1767 53.3771 75.2356 52.5314 74.4625C51.6856 73.6894 51.6267 72.3771 52.3998 71.5314C53.1729 70.6856 54.4852 70.6267 55.3309 71.3998C56.1767 72.1728 56.2356 73.4852 55.4625 74.3309Z" fill="#C4CB29"/>
<path d="M32.4625 63.3309C31.6895 64.1767 30.3771 64.2356 29.5314 63.4625C28.6856 62.6894 28.6267 61.3771 29.3998 60.5314C30.1729 59.6856 31.4852 59.6267 32.3309 60.3998C33.1767 61.1728 33.2356 62.4852 32.4625 63.3309Z" fill="#C4CB29"/>
<path d="M60.1297 72.0374C59.5875 72.6305 58.6671 72.6719 58.074 72.1297C57.4808 71.5875 57.4395 70.6671 57.9817 70.074C58.5239 69.4808 59.4442 69.4395 60.0374 69.9817C60.6305 70.5239 60.6718 71.4442 60.1297 72.0374Z" fill="#C4CB29"/>
<path d="M50.1297 76.0374C49.5875 76.6305 48.6671 76.6719 48.074 76.1297C47.4808 75.5875 47.4395 74.6671 47.9817 74.074C48.5239 73.4808 49.4442 73.4395 50.0374 73.9817C50.6305 74.5239 50.6718 75.4442 50.1297 76.0374Z" fill="#C4CB29"/>
<path d="M34.1297 67.0374C33.5875 67.6305 32.6671 67.6719 32.074 67.1297C31.4808 66.5875 31.4395 65.6671 31.9817 65.074C32.5239 64.4808 33.4442 64.4395 34.0374 64.9817C34.6305 65.5239 34.6718 66.4442 34.1297 67.0374Z" fill="#C4CB29"/>
<path d="M32.1297 57.0374C31.5875 57.6305 30.6671 57.6719 30.074 57.1297C29.4808 56.5875 29.4395 55.6671 29.9817 55.074C30.5239 54.4808 31.4442 54.4395 32.0374 54.9817C32.6305 55.5239 32.6718 56.4442 32.1297 57.0374Z" fill="#C4CB29"/>
<path d="M67.1297 63.0374C66.5875 63.6305 65.6671 63.6719 65.074 63.1297C64.4808 62.5875 64.4395 61.6671 64.9817 61.074C65.5239 60.4808 66.4442 60.4395 67.0374 60.9817C67.6305 61.5239 67.6718 62.4442 67.1297 63.0374Z" fill="#C4CB29"/>
<path d="M62 56C62 63.732 55.732 70 48 70C40.268 70 34 63.732 34 56C34 48.268 40.268 42 48 42C55.732 42 62 48.268 62 56Z" fill="#BAC73A"/>
<path d="M57 56C57 60.9706 52.9706 65 48 65C43.0294 65 39 60.9706 39 56C39 51.0294 43.0294 47 48 47C52.9706 47 57 51.0294 57 56Z" fill="#B6472C"/>
<path fill-rule="evenodd" clip-rule="evenodd" d="M59 56C59 62.0751 54.0751 67 48 67C41.9249 67 37 62.0751 37 56C37 49.9249 41.9249 45 48 45C54.0751 45 59 49.9249 59 56ZM48 65C52.9706 65 57 60.9706 57 56C57 51.0294 52.9706 47 48 47C43.0294 47 39 51.0294 39 56C39 60.9706 43.0294 65 48 65Z" fill="#662513"/>
<path fill-rule="evenodd" clip-rule="evenodd" d="M47 62C51.9706 62 56 57.9706 56 53C56 52.5573 55.968 52.122 55.9063 51.6964C56.6037 52.9748 57 54.4411 57 56C57 60.9706 52.9706 65 48 65C43.4722 65 39.7253 61.6565 39.0938 57.3037C40.62 60.1017 43.5883 62 47 62Z" fill="#A43E25"/>
<path d="M46 53C46 54.1046 45.1046 55 44 55C42.8954 55 42 54.1046 42 53C42 51.8954 42.8954 51 44 51C45.1046 51 46 51.8954 46 53Z" fill="#F5A05F"/>
<path d="M47.0672 24.221C48.6413 25.9178 47.8542 29.2075 45.3091 31.5688C42.7639 33.9301 39.4245 34.4688 37.8503 32.772C36.2761 31.0752 37.0633 27.7855 39.6084 25.4242C42.1536 23.0629 45.493 22.5242 47.0672 24.221Z" fill="#FFFAA3"/>
<path fill-rule="evenodd" clip-rule="evenodd" d="M42.4464 30.2619C43.3869 29.7575 43.7694 28.5958 43.2993 27.6269C42.8171 26.6331 41.6206 26.2184 40.6269 26.7006C40.332 26.8437 40.0019 27.0196 39.7128 27.255C39.3423 27.5566 39.1084 27.8958 38.9544 28.2475C38.9075 28.3545 38.8614 28.4826 38.8596 28.4878L38.8595 28.4879C38.8584 28.4909 38.8574 28.4935 38.8566 28.4957C38.8464 28.5114 38.8239 28.5435 38.7824 28.5942C38.0821 29.4484 38.207 30.7086 39.0613 31.4088C39.9155 32.1091 41.1757 31.9842 41.8759 31.13C42.1282 30.8222 42.3099 30.5394 42.4464 30.2619ZM38.8636 28.4842C38.8637 28.4842 38.8629 28.4857 38.8611 28.4887C38.8626 28.4857 38.8636 28.4842 38.8636 28.4842Z" fill="white"/>
</svg>
