<svg width="96" height="96" viewBox="0 0 96 96" fill="none" xmlns="http://www.w3.org/2000/svg">
<path d="M78.0418 56.3649C78.0418 56.3649 73.1451 63.2989 68.3765 64.667C62.6291 66.316 57.3271 60.7659 57.3271 60.7659C57.3271 60.7659 60.5656 54.8543 66.7281 53.545C71.4685 52.5378 78.0418 56.3649 78.0418 56.3649Z" fill="#64AC1D"/>
<path fill-rule="evenodd" clip-rule="evenodd" d="M79.6755 57.5186L78.0418 56.3649L79.0481 54.6365C79.5328 54.9187 79.8768 55.3915 79.9961 55.9395C80.1154 56.4875 79.9991 57.0605 79.6755 57.5186ZM76.2374 55.4449C77.3433 55.9582 78.0418 56.3649 78.0418 56.3649C78.0418 56.3649 77.5803 57.0184 76.8027 57.9638C75.0473 60.0978 71.6812 63.7189 68.3765 64.6671C62.6292 66.3161 57.3272 60.766 57.3272 60.766C57.3272 60.766 60.5657 54.8543 66.7281 53.545C69.9232 52.8662 73.951 54.3835 76.2374 55.4449ZM57.3272 60.766C55.5731 59.8051 55.5735 59.8045 55.5738 59.8038L55.5746 59.8024L55.5764 59.7991L55.5809 59.791L55.5936 59.7683C55.6037 59.7504 55.6171 59.7268 55.6337 59.698C55.667 59.6405 55.7134 59.5618 55.7729 59.4647C55.8918 59.2706 56.0636 59.0017 56.2878 58.6795C56.735 58.0369 57.3982 57.1714 58.2757 56.2596C60.0149 54.4526 62.7017 52.3559 66.3125 51.5887C69.2682 50.9607 72.5534 51.8457 74.8593 52.7026C76.0589 53.1483 77.0946 53.6258 77.8307 53.9916C78.2 54.1751 78.4969 54.3321 78.7049 54.445C78.8089 54.5016 78.8909 54.5472 78.9488 54.5798C78.9777 54.5961 79.0006 54.6092 79.0173 54.6187L79.0375 54.6303L79.044 54.6341L79.0481 54.6365C79.0485 54.6367 79.0481 54.6365 78.0418 56.3649C79.6755 57.5186 79.6758 57.5183 79.6755 57.5186L79.673 57.5222L79.6686 57.5284L79.6545 57.5481C79.6428 57.5645 79.6264 57.5874 79.6054 57.6164C79.5634 57.6743 79.5033 57.7566 79.4261 57.8602C79.2718 58.0673 79.0492 58.3602 78.768 58.714C78.2072 59.4198 77.4058 60.3777 76.4432 61.3848C74.5963 63.3172 71.8643 65.7471 68.9281 66.5895C65.2976 67.6312 61.9448 66.3664 59.6958 65.0665C58.5471 64.4025 57.6082 63.6859 56.9566 63.1368C56.6291 62.8608 56.3697 62.6234 56.188 62.4505C56.097 62.364 56.0252 62.2934 55.9737 62.2419C55.948 62.2162 55.9273 62.1951 55.9118 62.1793L55.8924 62.1594L55.8857 62.1524L55.8831 62.1497L55.882 62.1485C55.8815 62.148 55.881 62.1475 57.3272 60.766ZM55.5731 59.8051L57.3272 60.766L55.881 62.1475C55.2789 61.5172 55.1543 60.5696 55.5731 59.8051Z" fill="#156319"/>
<path d="M75.4634 69.8476C75.4634 69.8476 66.3949 73.7768 60.8247 72.2492C54.1111 70.4081 52.2004 61.6783 52.2004 61.6783C52.2004 61.6783 59.0009 57.7614 65.9215 60.1917C71.245 62.0612 75.4634 69.8476 75.4634 69.8476Z" fill="#7CD623"/>
<path fill-rule="evenodd" clip-rule="evenodd" d="M76.2585 71.6828L75.4634 69.8476L77.2219 68.8949C77.4891 69.3881 77.5369 69.9708 77.3537 70.5009C77.1705 71.031 76.7732 71.4598 76.2585 71.6828ZM74.4113 68.1195C75.0848 69.1488 75.4634 69.8476 75.4634 69.8476C75.4634 69.8476 74.7407 70.1607 73.5781 70.5758C70.6222 71.6311 64.8225 73.3456 60.8247 72.2492C54.1111 70.4081 52.2004 61.6783 52.2004 61.6783C52.2004 61.6783 59.0009 57.7614 65.9215 60.1917C69.6502 61.5011 72.8366 65.7132 74.4113 68.1195ZM52.2004 61.6783C51.2022 59.9452 51.2028 59.9449 51.2035 59.9445L51.2049 59.9437L51.2083 59.9417L51.2169 59.9368L51.2416 59.9229C51.2614 59.9118 51.2878 59.8971 51.3207 59.8792C51.3863 59.8434 51.4776 59.7946 51.5931 59.7353C51.8237 59.617 52.1516 59.4564 52.5633 59.2747C53.3846 58.912 54.5518 58.4594 55.9565 58.0896C58.7437 57.3557 62.613 56.9101 66.5842 58.3047C69.8107 59.4378 72.4927 62.243 74.259 64.482C75.173 65.6406 75.907 66.7327 76.4129 67.5351C76.6666 67.9375 76.8648 68.2699 77.0013 68.5051C77.0697 68.6228 77.1227 68.7164 77.1597 68.7824C77.1782 68.8155 77.1927 68.8416 77.2031 68.8605L77.2156 68.8833L77.2195 68.8906L77.2219 68.8949C77.2222 68.8954 77.2219 68.8949 75.4634 69.8476C76.2585 71.6828 76.2589 71.6826 76.2585 71.6828L76.2542 71.6846L76.2466 71.6879L76.2216 71.6986C76.2006 71.7076 76.171 71.7201 76.1332 71.736C76.0577 71.7676 75.9494 71.8124 75.8113 71.8682C75.5353 71.9795 75.1397 72.1347 74.6494 72.3149C73.6711 72.6745 72.3038 73.1383 70.7489 73.5536C67.7481 74.3549 63.6346 75.0937 60.2957 74.178C56.1796 73.0492 53.6698 69.8521 52.2395 67.2316C51.5109 65.8968 51.0185 64.6343 50.7076 63.7068C50.5514 63.241 50.4392 62.8542 50.3647 62.5779C50.3274 62.4396 50.2994 62.3285 50.28 62.2487C50.2703 62.2087 50.2627 62.1765 50.2572 62.1526L50.2505 62.1229L50.2482 62.1128L50.2473 62.109L50.247 62.1073C50.2468 62.1066 50.2467 62.1059 52.2004 61.6783ZM51.2022 59.9452L52.2004 61.6783L50.2467 62.1059C50.0603 61.2544 50.4469 60.3803 51.2022 59.9452Z" fill="#156319"/>
<path d="M60.521 70.6993C64.7858 72.197 72.478 69.5547 72.478 69.5547C64.6662 64.2631 56.9431 63.9247 54.1919 64.0203C54.1919 64.0203 56.2561 69.2016 60.521 70.6993Z" fill="#6FC21C"/>
<path d="M53.7754 69.71C68.5 61 66.2 45.4135 59.5793 33.9306L17.996 57.9061C24.6166 69.389 38.0704 79 53.7754 69.71Z" fill="#A6682F"/>
<path fill-rule="evenodd" clip-rule="evenodd" d="M58.5804 32.1979C59.5373 31.6462 60.7603 31.9746 61.312 32.9316C64.7445 38.8849 67.151 46.0506 66.6773 52.9962C66.1952 60.0628 62.7325 66.7354 54.7937 71.4314C46.3921 76.4011 38.4272 76.3661 31.6814 73.4319C25.032 70.5396 19.7245 64.9081 16.2634 58.9051C15.7117 57.9482 16.0401 56.7252 16.997 56.1734L58.5804 32.1979ZM19.0401 59.6127C25.968 70.303 38.8559 78.5353 53.7755 69.71C67.7626 61.4362 66.3877 46.9574 60.54 35.6853C60.2317 35.091 59.9109 34.5056 59.5794 33.9305L17.996 57.9061C18.3271 58.4804 18.6753 59.05 19.0401 59.6127Z" fill="#6C3211"/>
<path fill-rule="evenodd" clip-rule="evenodd" d="M59.5793 33.9306C66.2 45.4135 68.5 61 53.7754 69.71C46.39 74.0787 39.5024 74.2676 33.5891 72.0476C37.6085 72.6131 42.0314 71.8312 46.6893 69.0759C59.0953 61.7374 57.1574 48.6053 51.5793 38.9306L18.1649 58.1962C18.1081 58.0997 18.0518 58.003 17.996 57.9061L59.5793 33.9306Z" fill="#925824"/>
<path d="M60.6016 56.0031C60.1535 57.0127 58.9717 57.4678 57.9622 57.0196C56.9526 56.5714 56.4975 55.3897 56.9457 54.3802C57.3939 53.3706 58.5756 52.9155 59.5852 53.3637C60.5947 53.8119 61.0498 54.9936 60.6016 56.0031Z" fill="#77461A"/>
<path d="M59.325 49.6565C58.9889 50.4137 58.1026 50.755 57.3454 50.4189C56.5882 50.0827 56.2469 49.1964 56.583 48.4393C56.9192 47.6821 57.8055 47.3408 58.5626 47.6769C59.3198 48.0131 59.6611 48.8993 59.325 49.6565Z" fill="#77461A"/>
<path d="M57.7614 62.4011C57.3133 63.4107 56.1315 63.8657 55.122 63.4176C54.1124 62.9694 53.6573 61.7877 54.1055 60.7781C54.5537 59.7685 55.7354 59.3135 56.745 59.7616C57.7545 60.2098 58.2096 61.3915 57.7614 62.4011Z" fill="#77461A"/>
<path d="M53.9005 56.3106C53.4523 57.3202 52.2706 57.7753 51.261 57.3271C50.2514 56.8789 49.7964 55.6972 50.2445 54.6877C50.6927 53.6781 51.8744 53.223 52.884 53.6712C53.8936 54.1194 54.3487 55.3011 53.9005 56.3106Z" fill="#77461A"/>
<path d="M51.3506 66.5882C51.0145 67.3454 50.1282 67.6867 49.371 67.3506C48.6138 67.0144 48.2725 66.1281 48.6087 65.371C48.9448 64.6138 49.8311 64.2725 50.5883 64.6086C51.3454 64.9448 51.6868 65.8311 51.3506 66.5882Z" fill="#77461A"/>
<path d="M59.5793 33.9305C61.7861 37.7582 54.2664 46.2282 42.7835 52.8489C31.3006 59.4695 20.2028 61.7337 17.9959 57.9061C15.789 54.0784 23.3087 45.6084 34.7917 38.9878C46.2746 32.3671 57.3724 30.1029 59.5793 33.9305Z" fill="#FFEED6"/>
<path fill-rule="evenodd" clip-rule="evenodd" d="M57.8107 43.6701C54.5937 47.2938 49.6584 51.1937 43.7825 54.5815C37.9067 57.9693 32.0589 60.2866 27.3111 61.2552C24.9479 61.7374 22.7432 61.9093 20.8974 61.6409C19.0801 61.3766 17.2523 60.6204 16.2633 58.9051C15.2743 57.1897 15.5356 55.2291 16.2174 53.5239C16.9099 51.7919 18.1633 49.9701 19.7645 48.1665C22.9816 44.5429 27.9169 40.643 33.7927 37.2551C39.6686 33.8673 45.5164 31.5501 50.2642 30.5814C52.6273 30.0993 54.8321 29.9273 56.6778 30.1957C58.4952 30.4601 60.3229 31.2162 61.3119 32.9316C62.301 34.6469 62.0397 36.6075 61.3579 38.3128C60.6654 40.0447 59.412 41.8666 57.8107 43.6701ZM42.7836 52.8489C54.2665 46.2282 61.7862 37.7582 59.5793 33.9305C57.3724 30.1029 46.2746 32.3671 34.7917 38.9878C23.3088 45.6084 15.7891 54.0785 17.996 57.9061C20.2029 61.7337 31.3006 59.4695 42.7836 52.8489Z" fill="#8C4922"/>
<path fill-rule="evenodd" clip-rule="evenodd" d="M54 34.4999C54 35.6045 53.1046 36.4999 52 36.4999C51.7055 36.4999 51.5528 36.5315 51.3479 36.5779C51.3276 36.5825 51.3059 36.5875 51.283 36.5928C51.017 36.6542 50.5812 36.7547 50 36.7547C48.8955 36.7547 48 35.8592 48 34.7547C48 33.6501 48.8955 32.7547 50 32.7547C50.1188 32.7547 50.1591 32.7459 50.4647 32.6767C50.8223 32.5957 51.2946 32.4999 52 32.4999C53.1046 32.4999 54 33.3954 54 34.4999Z" fill="white"/>
<path d="M56.2239 37.5181C57.7108 40.0968 51.3612 46.5431 42.0419 51.9163C32.7226 57.2895 23.9625 59.5549 22.4757 56.9762C20.9889 54.3975 27.3384 47.9512 36.6577 42.5779C45.977 37.2047 54.7371 34.9393 56.2239 37.5181Z" fill="#E7D2B4"/>
<path fill-rule="evenodd" clip-rule="evenodd" d="M33.6054 56.017C29.6134 55.8635 26.3575 54.398 24.743 51.6428C22.7118 53.899 21.8112 55.8238 22.4757 56.9762C23.4938 58.742 27.9223 58.2365 33.6054 56.017Z" fill="#DDC5A2"/>
<path fill-rule="evenodd" clip-rule="evenodd" d="M27.0619 63.3339C27.9351 62.6574 29.1913 62.8168 29.8679 63.6899C30.0483 63.9227 30.1668 64.024 30.3289 64.1576C30.3451 64.1709 30.3623 64.1849 30.3805 64.1998C30.5919 64.3725 30.9383 64.6554 31.2942 65.1148C31.9708 65.988 31.8114 67.2442 30.9383 67.9208C30.0651 68.5973 28.8089 68.438 28.1323 67.5648C28.0596 67.4709 28.028 67.4445 27.7861 67.2453C27.5031 67.0122 27.1381 66.6975 26.706 66.1399C26.0294 65.2667 26.1888 64.0105 27.0619 63.3339Z" fill="#CF843E"/>
</svg>
