<svg width="24" height="24" viewBox="0 0 24 24" fill="none" xmlns="http://www.w3.org/2000/svg">
<path d="M21.5 17.8V10.5651C21.5 10.5423 21.5 10.5198 21.5 10.4977C21.5002 9.98832 21.5003 9.63595 21.4075 9.30428C21.3255 9.01144 21.1908 8.73602 21.01 8.49153C20.8052 8.21462 20.5269 7.99839 20.1248 7.68581C20.1073 7.67221 20.0896 7.65843 20.0716 7.64445L13.2893 2.36932C13.2685 2.35316 13.2479 2.33711 13.2275 2.3212C12.9389 2.09597 12.6859 1.89855 12.392 1.81898C12.1353 1.74947 11.8647 1.74947 11.608 1.81898C11.3141 1.89855 11.0611 2.09597 10.7725 2.3212C10.7521 2.33711 10.7315 2.35316 10.7107 2.36932L3.92842 7.64445C3.91045 7.65842 3.89272 7.6722 3.87523 7.6858C3.47306 7.99838 3.19484 8.21462 2.99003 8.49153C2.80921 8.73602 2.6745 9.01144 2.59253 9.30428C2.4997 9.63595 2.49981 9.98832 2.49998 10.4977C2.49999 10.5198 2.5 10.5423 2.5 10.5651V17.8L2.5 17.8214C2.49999 18.3633 2.49999 18.8004 2.52891 19.1543C2.55868 19.5187 2.62159 19.8388 2.77248 20.135C3.01217 20.6054 3.39462 20.9878 3.86502 21.2275C4.16117 21.3784 4.48126 21.4413 4.84569 21.4711C5.19963 21.5 5.6367 21.5 6.17858 21.5H6.2H17.8H17.8214C18.3633 21.5 18.8004 21.5 19.1543 21.4711C19.5187 21.4413 19.8388 21.3784 20.135 21.2275C20.6054 20.9878 20.9878 20.6054 21.2275 20.135C21.3784 19.8388 21.4413 19.5187 21.4711 19.1543C21.5 18.8004 21.5 18.3633 21.5 17.8214V17.8Z" fill="black" stroke="black" stroke-linecap="round" stroke-linejoin="round"/>
</svg>
