<svg width="96" height="96" viewBox="0 0 96 96" fill="none" xmlns="http://www.w3.org/2000/svg">
<path fill-rule="evenodd" clip-rule="evenodd" d="M72.2517 52.3998C72.7007 61.657 64.7313 70.9448 52.9739 74.1132C41.2583 77.2703 29.7416 73.2844 25.4418 65.1142C23.4546 65.6269 21.4691 64.6233 20.9931 62.8569C20.5171 61.0905 21.7295 59.2252 23.7053 58.6699C23.3176 49.4456 31.2721 40.2127 42.9876 37.0556C54.745 33.8872 66.3021 37.913 70.5654 46.1422C72.2403 46.0627 73.7551 47.016 74.1628 48.5288C74.5704 50.0416 73.7397 51.6269 72.2517 52.3998Z" fill="#FFD12F"/>
<path fill-rule="evenodd" clip-rule="evenodd" d="M74.2678 53.442C74.1067 63.5052 65.3926 72.838 53.4942 76.0443C41.7345 79.2133 29.661 75.646 24.3632 67.2431C22.0082 67.2223 19.729 65.8526 19.062 63.3773C18.3949 60.9021 19.6773 58.5726 21.703 57.3713C22.0614 47.4442 30.7075 38.2935 42.4671 35.1245C54.3654 31.9181 66.589 35.6085 71.7847 44.2281C73.746 44.5723 75.5233 45.8913 76.0938 48.0084C76.6644 50.1255 75.7904 52.159 74.2678 53.442ZM72.2517 52.3998C72.7007 61.657 64.7313 70.9448 52.9738 74.1132C41.2582 77.2703 29.7415 73.2844 25.4418 65.1142C23.4546 65.6269 21.4691 64.6233 20.9931 62.8569C20.5171 61.0905 21.7294 59.2252 23.7052 58.6699C23.3176 49.4456 31.272 40.2127 42.9875 37.0556C54.7449 33.8872 66.302 37.913 70.5653 46.1422C72.2402 46.0627 73.7551 47.016 74.1627 48.5288C74.5704 50.0416 73.7397 51.6269 72.2517 52.3998Z" fill="#755F13"/>
<path d="M45.9451 44.7301C47.3718 47.8576 44.7254 52.1277 40.0342 54.2678C35.343 56.4078 30.3835 55.6074 28.9568 52.4799C27.5301 49.3524 30.1765 45.0823 34.8677 42.9423C39.5589 40.8022 44.5184 41.6027 45.9451 44.7301Z" fill="#FFEA2F"/>
<path d="M24.4194 60.2727C24.7401 60.9756 24.3645 61.8353 23.5806 62.1929C22.7966 62.5505 21.9012 62.2706 21.5806 61.5678C21.2599 60.8649 21.6355 60.0052 22.4194 59.6476C23.2034 59.29 24.0988 59.5698 24.4194 60.2727Z" fill="#FFEA2F"/>
<path fill-rule="evenodd" clip-rule="evenodd" d="M45.833 68.5124C59.18 64.9157 67.9247 54.2988 65.3647 44.7991C64.608 41.9911 62.9483 39.595 60.6408 37.7055C65.0453 39.4158 68.5891 42.3273 70.5654 46.1422C72.2403 46.0627 73.7551 47.016 74.1627 48.5288C74.5704 50.0415 73.7397 51.6269 72.2517 52.3997C72.7007 61.6569 64.7313 70.9447 52.9738 74.1131C42.8041 76.8536 32.7842 74.2118 27.5046 68.1228C32.6977 70.018 39.2097 70.2973 45.833 68.5124Z" fill="#DEB523"/>
<path d="M64.8739 56.7555C64.202 57.4906 63.0614 57.5418 62.3264 56.8699C61.5913 56.198 61.5401 55.0574 62.212 54.3223C62.8839 53.5872 64.0245 53.536 64.7596 54.2079C65.4946 54.8798 65.5458 56.0204 64.8739 56.7555Z" fill="#C89616"/>
<path d="M66.4336 62.0671C65.7617 62.8022 64.6211 62.8534 63.8861 62.1815C63.151 61.5096 63.0998 60.369 63.7717 59.6339C64.4436 58.8989 65.5842 58.8477 66.3193 59.5196C67.0543 60.1915 67.1055 61.3321 66.4336 62.0671Z" fill="#C89616"/>
<path d="M69.7221 57.1332C69.2181 57.6845 68.3627 57.7229 67.8114 57.219C67.2601 56.715 67.2217 55.8596 67.7256 55.3083C68.2295 54.757 69.085 54.7186 69.6363 55.2225C70.1876 55.7264 70.226 56.5819 69.7221 57.1332Z" fill="#C89616"/>
<path d="M62.1756 66.7256C61.5037 67.4607 60.3631 67.5119 59.628 66.84C58.8929 66.1681 58.8417 65.0275 59.5136 64.2924C60.1855 63.5573 61.3261 63.5061 62.0612 64.178C62.7963 64.8499 62.8475 65.9905 62.1756 66.7256Z" fill="#C89616"/>
<path d="M60.6159 60.4139C59.944 61.1489 58.8034 61.2002 58.0683 60.5283C57.3332 59.8563 57.282 58.7158 57.9539 57.9807C58.6258 57.2456 59.7664 57.1944 60.5015 57.8663C61.2366 58.5382 61.2878 59.6788 60.6159 60.4139Z" fill="#C89616"/>
<path d="M56.2565 69.5163C55.3758 70.4798 53.8809 70.5469 52.9174 69.6662C51.9539 68.7856 51.8868 67.2906 52.7675 66.3271C53.6481 65.3637 55.1431 65.2966 56.1066 66.1772C57.07 67.0579 57.1371 68.5529 56.2565 69.5163Z" fill="#C89616"/>
<path d="M48.8785 71.9298C48.2065 72.6649 47.066 72.7161 46.3309 72.0442C45.5958 71.3723 45.5446 70.2317 46.2165 69.4966C46.8884 68.7615 48.029 68.7103 48.7641 69.3822C49.4992 70.0541 49.5504 71.1947 48.8785 71.9298Z" fill="#C89616"/>
<path d="M54.2796 62.9513C53.7653 63.514 52.8922 63.5532 52.3295 63.0388C51.7668 62.5245 51.7276 61.6514 52.242 61.0888C52.7563 60.5261 53.6294 60.4869 54.192 61.0012C54.7547 61.5155 54.7939 62.3886 54.2796 62.9513Z" fill="#C89616"/>
<path d="M50.8703 67.4543C50.4558 67.9077 49.7523 67.9393 49.2989 67.5249C48.8455 67.1104 48.8139 66.4069 49.2283 65.9534C49.6428 65.5 50.3463 65.4684 50.7997 65.8829C51.2532 66.2973 51.2848 67.0009 50.8703 67.4543Z" fill="#C89616"/>
<path d="M41.9088 72.9888C41.4049 73.5401 40.5495 73.5785 39.9982 73.0746C39.4469 72.5707 39.4085 71.7152 39.9124 71.1639C40.4163 70.6126 41.2718 70.5742 41.8231 71.0782C42.3744 71.5821 42.4128 72.4375 41.9088 72.9888Z" fill="#C89616"/>
<path fill-rule="evenodd" clip-rule="evenodd" d="M36.98 46.4719C37.474 47.4598 37.0735 48.6612 36.0856 49.1551C35.2944 49.5507 34.6616 50.0627 34.1595 50.6904C33.4694 51.5529 32.2109 51.6928 31.3483 51.0027C30.4858 50.3127 30.346 49.0541 31.036 48.1916C31.917 47.0904 33.0131 46.2192 34.2967 45.5774C35.2847 45.0834 36.486 45.4839 36.98 46.4719Z" fill="white"/>
<path fill-rule="evenodd" clip-rule="evenodd" d="M70.4506 51.483C72.1253 51.483 73.483 50.1253 73.483 48.4506C73.483 47.9251 73.3493 47.4309 73.1142 47C74.0566 47.5143 74.6959 48.5143 74.6959 49.6636C74.6959 51.3383 73.3383 52.6959 71.6636 52.6959C70.5143 52.6959 69.5143 52.0566 69 51.1142C69.4309 51.3493 69.9251 51.483 70.4506 51.483Z" fill="#AE8C14"/>
</svg>
