<svg width="96" height="96" viewBox="0 0 96 96" fill="none" xmlns="http://www.w3.org/2000/svg">
<path d="M55.5557 36.5481C63.1963 47.1412 78.3025 54.8385 76.5902 56.0736C74.8778 57.3087 55.4379 50.9425 47.7973 40.3494C40.1566 29.7563 40.2699 24.5272 43.4223 22.2534C46.5747 19.9797 47.9151 25.955 55.5557 36.5481Z" fill="#E6AF00"/>
<path fill-rule="evenodd" clip-rule="evenodd" d="M74.4716 56.087C68.8608 55.1238 54.194 49.218 47.7973 40.3495C40.1566 29.7564 40.2699 24.5272 43.4223 22.2535C45.5124 20.7459 46.8059 22.8646 49.6673 27.5511C51.1216 29.9331 52.9809 32.9784 55.5557 36.5481C60.015 42.7306 67.0173 47.9267 71.7348 51.4274C73.2108 52.5226 74.4631 53.4519 75.344 54.1936C75.4146 54.253 75.4828 54.3112 75.5485 54.3682C76.533 55.222 76.9654 55.803 76.5902 56.0736C76.3361 56.2568 75.692 56.2728 74.7542 56.1325C74.6628 56.1188 74.5685 56.1036 74.4716 56.087ZM74.9126 56.5447C74.912 56.5446 74.9062 56.5369 74.8969 56.5218C74.9085 56.5373 74.9131 56.5448 74.9126 56.5447ZM75.9497 54.2183C75.9504 54.2188 75.9398 54.2208 75.916 54.2228C75.9371 54.2188 75.949 54.2178 75.9497 54.2183ZM78.5469 56.7115C78.3607 57.1561 78.0617 57.4782 77.7601 57.6957C77.1945 58.1036 76.5602 58.1846 76.2244 58.2108C75.8175 58.2427 75.3831 58.2211 74.9604 58.1755C74.1078 58.0836 73.0681 57.8674 71.9225 57.5584C69.6183 56.937 66.6845 55.8855 63.584 54.4655C57.446 51.6543 50.2986 47.2362 46.1752 41.5194C42.2969 36.1425 40.208 31.8961 39.595 28.5412C39.2835 26.8364 39.3377 25.2781 39.8097 23.9017C40.289 22.5041 41.1562 21.422 42.2523 20.6314C42.8332 20.2124 43.5324 19.8666 44.3464 19.7893C45.191 19.7092 45.9492 19.9377 46.5896 20.3154C47.723 20.9839 48.6477 22.2293 49.4715 23.4686C50.092 24.402 50.7337 25.4545 51.4582 26.6426C52.8864 28.9849 54.6361 31.8544 57.1778 35.3781C60.8049 40.4068 66.2714 44.8238 70.7836 48.2226C71.5006 48.7627 72.2029 49.2839 72.8703 49.7792C74.2438 50.7985 75.469 51.7079 76.3679 52.4443C77.0176 52.9766 77.6651 53.5506 78.0868 54.1084C78.2808 54.3651 78.6071 54.8459 78.6992 55.4793C78.751 55.8352 78.7324 56.2686 78.5469 56.7115Z" fill="#C0780C"/>
<path d="M39.6226 39.3789C34.7074 48.6415 20.2578 58.1349 19.2059 57.5767C18.1539 57.0184 24.1441 53.9391 30.2349 38.5703C35.1501 29.3078 40.6657 24.2673 42.6023 25.295C44.5389 26.3227 44.5378 30.1164 39.6226 39.3789Z" fill="#8CC900"/>
<path fill-rule="evenodd" clip-rule="evenodd" d="M28.4164 37.7306L28.4682 37.6328C30.9922 32.8764 33.7055 29.1337 36.1045 26.6766C37.2947 25.4576 38.4777 24.4824 39.5859 23.8776C40.5585 23.3468 42.1009 22.7648 43.5398 23.5283C45.6891 24.6689 46.07 27.0866 45.6546 29.5778C45.2279 32.1369 43.8757 35.6307 41.3892 40.3164C38.7342 45.3197 33.6286 50.2169 29.2093 53.7267C26.9744 55.5018 24.8466 56.9758 23.1844 57.9822C22.3598 58.4814 21.6091 58.8904 20.9948 59.163C20.6947 59.2961 20.3639 59.4254 20.0387 59.5065C19.8771 59.5469 19.6568 59.5908 19.4072 59.5988C19.1882 59.6059 18.7409 59.5941 18.2684 59.3433C17.8411 59.1166 17.3068 58.6521 17.1354 57.8662C16.9896 57.198 17.194 56.6552 17.3024 56.4132C17.5105 55.9479 17.8748 55.512 18.0958 55.2482C18.2549 55.0583 18.4282 54.858 18.6177 54.639C19.1102 54.0699 19.7117 53.3746 20.4577 52.4067C22.4732 49.7911 25.4001 45.3415 28.3756 37.8334L28.4164 37.7306ZM21.4898 54.3287C23.6259 51.672 26.9155 46.9462 30.2349 38.5703C35.1501 29.3078 40.6657 24.2673 42.6023 25.295C44.5389 26.3226 44.5378 30.1164 39.6226 39.3789C36.1071 46.0036 27.7146 52.7464 22.8347 55.8454C22.154 56.2777 21.5416 56.6391 21.0204 56.9194C20.0537 57.4391 19.4005 57.6799 19.2059 57.5766C18.8901 57.4091 19.2089 57.0143 19.9745 56.1281C20.0143 56.0821 20.0552 56.0348 20.0974 55.9861C20.1355 55.942 20.1746 55.8967 20.2147 55.8504C20.5699 55.4394 20.9995 54.9386 21.4898 54.3287Z" fill="#628D01"/>
<path d="M58.3216 39.2693C62.8985 52.9144 63.4745 74.126 61.1929 74.8913C58.9114 75.6566 52.6513 54.5316 46.0988 43.6498C39.1255 33.6708 40.4763 25.2226 44.6765 23.8138C48.8768 22.4049 53.7447 25.6242 58.3216 39.2693Z" fill="#8CC900"/>
<path fill-rule="evenodd" clip-rule="evenodd" d="M63.3036 75.5413C63.0799 75.9155 62.63 76.5188 61.8289 76.7875C60.8698 77.1092 60.0543 76.7468 59.609 76.4495C59.1701 76.1566 58.8258 75.765 58.5698 75.4305C58.0444 74.744 57.5175 73.7949 57.0006 72.7494C55.952 70.6288 54.7223 67.647 53.3955 64.3934C53.269 64.0833 53.1416 63.7704 53.0132 63.4553C50.4153 57.0788 47.4356 49.7648 44.4195 44.7383C40.7873 39.5207 39.2078 34.5452 39.1976 30.523C39.1877 26.6076 40.7452 23.0229 44.0405 21.9176C45.4367 21.4493 46.9412 21.3547 48.4821 21.7912C50.0056 22.2228 51.439 23.1373 52.7782 24.4883C55.4154 27.1486 57.8962 31.7121 60.2178 38.6333C62.5813 45.6797 63.8884 54.5825 64.3255 61.7892C64.5444 65.3976 64.5496 68.651 64.3433 71.0899C64.2412 72.2972 64.0808 73.3883 63.8358 74.2485C63.7147 74.6739 63.5484 75.1318 63.3036 75.5413ZM46.0988 43.6498C49.2101 48.8169 52.2556 56.2934 54.8404 62.6393C57.6993 69.6578 59.9947 75.2932 61.1929 74.8913C63.4745 74.126 62.8985 52.9144 58.3216 39.2693C53.7447 25.6242 48.8768 22.4049 44.6765 23.8138C40.4763 25.2226 39.1255 33.6708 46.0988 43.6498Z" fill="#628D01"/>
<path fill-rule="evenodd" clip-rule="evenodd" d="M59.9544 73.9263C61.7173 73.2562 59.0478 52.5606 53.9338 39.1075C50.3657 29.7212 47.2107 25.2774 44.527 23.8675C44.5765 23.8486 44.6265 23.8306 44.6768 23.8137C48.8771 22.4049 53.745 25.6242 58.3219 39.2693C62.8988 52.9144 63.4748 74.126 61.1932 74.8913C60.8602 75.003 60.4425 74.6484 59.9514 73.9274C59.9524 73.927 59.9534 73.9267 59.9544 73.9263Z" fill="#7AAA0D"/>
<path d="M46.2589 44.8781C42.3306 57.5109 28.5562 73.6317 26.1013 72.8683C23.6464 72.105 28.1013 60.3683 31.4763 41.8683C35.4047 29.2356 38.7408 24.2576 43.2601 25.6629C47.7794 27.0683 50.1873 32.2454 46.2589 44.8781Z" fill="#FEC200"/>
<path fill-rule="evenodd" clip-rule="evenodd" d="M29.5305 41.3902L29.5665 41.2745C31.5346 34.9455 33.4267 30.2704 35.5187 27.3394C36.5769 25.8569 37.7865 24.675 39.2259 24.0101C40.7262 23.317 42.2965 23.2688 43.854 23.7532C46.8167 24.6745 49.053 26.8968 49.88 30.6275C50.6675 34.1802 50.1715 39.0315 48.1687 45.472C46.1039 52.1121 41.5193 59.5178 37.2128 65.1162C35.0493 67.9288 32.9038 70.3532 31.1064 72.0484C30.2151 72.889 29.3548 73.6024 28.5817 74.0923C28.1976 74.3357 27.7703 74.5658 27.3239 74.7152C26.9134 74.8526 26.2401 75.006 25.5074 74.7782C24.2604 74.3904 23.7403 73.3343 23.5477 72.5568C23.3616 71.8055 23.3698 70.951 23.4378 70.1375C23.5767 68.4771 24.0429 66.2258 24.6535 63.5713C24.9395 62.3278 25.2623 60.9747 25.6102 59.5161C26.7736 54.6393 28.2182 48.5837 29.5087 41.5094L29.5305 41.3902ZM26.1013 72.8684C28.5562 73.6317 42.3306 57.5109 46.2589 44.8782C50.1873 32.2454 47.7794 27.0683 43.2601 25.6629C38.7408 24.2576 35.4047 29.2356 31.4763 41.8684C30.1749 49.0017 28.713 55.1295 27.5486 60.0103C25.6931 67.7878 24.593 72.3993 26.1013 72.8684Z" fill="#AD0505"/>
<path fill-rule="evenodd" clip-rule="evenodd" d="M26.0433 71.0263C28.5742 71.4778 40.232 53.7659 42.5552 40.742C43.9177 33.1045 43.4376 28.2826 41.8679 25.4328C42.3202 25.4375 42.7836 25.5148 43.2601 25.6629C47.7794 27.0683 50.1874 32.2454 46.259 44.8782C42.3306 57.5109 28.5562 73.6318 26.1013 72.8684C25.5143 72.6858 25.3224 71.8759 25.4163 70.4961C25.5699 70.7999 25.776 70.9786 26.0433 71.0263Z" fill="#DA9308"/>
<path d="M54.8514 45.6183C54.8514 65.7501 46.453 83.1183 44.8514 83.1183C43.2499 83.1183 34.8514 61.9107 34.8514 45.6183C34.8514 29.3259 39.3286 24.1183 44.8514 24.1183C50.3743 24.1183 54.8514 29.3259 54.8514 45.6183Z" fill="#FA2D11"/>
<path fill-rule="evenodd" clip-rule="evenodd" d="M46.5521 84.4169C46.3544 84.5917 45.7407 85.1183 44.8514 85.1183C44.2643 85.1183 43.8256 84.885 43.5963 84.7368C43.3487 84.5768 43.155 84.3921 43.0167 84.2448C42.7391 83.9489 42.4875 83.5892 42.2666 83.2365C41.815 82.5149 41.313 81.5305 40.7904 80.3731C39.7377 78.0413 38.5104 74.8034 37.3424 71.0761C35.0141 63.6469 32.8514 54.0526 32.8514 45.6183C32.8514 37.3522 33.9764 31.5795 36.0221 27.8056C37.0603 25.8903 38.3598 24.4462 39.904 23.4874C41.4545 22.5248 43.1444 22.1183 44.8514 22.1183C46.5584 22.1183 48.2484 22.5248 49.7988 23.4874C51.3431 24.4462 52.6425 25.8903 53.6808 27.8056C55.7264 31.5795 56.8514 37.3522 56.8514 45.6183C56.8514 55.9474 54.7 65.54 52.3482 72.5536C51.1721 76.0609 49.9334 78.9608 48.8631 81.0144C48.3322 82.0332 47.8169 82.8936 47.345 83.5272C47.1135 83.8382 46.8473 84.1561 46.5521 84.4169ZM44.8514 83.1183C46.453 83.1183 54.8514 65.7501 54.8514 45.6183C54.8514 29.3259 50.3743 24.1183 44.8514 24.1183C39.3286 24.1183 34.8514 29.3259 34.8514 45.6183C34.8514 61.9107 43.2499 83.1183 44.8514 83.1183Z" fill="#AD0505"/>
<path fill-rule="evenodd" clip-rule="evenodd" d="M44.8515 83.1183C46.4531 83.1183 54.8515 65.7501 54.8515 45.6183C54.8515 29.3259 50.3744 24.1183 44.8515 24.1183C44.2932 24.1183 43.7456 24.1716 43.2122 24.2841C43.6353 24.2695 44.062 24.2903 44.4912 24.3437C49.9719 25.0251 53.7723 30.7453 51.7622 46.9132C50.1786 59.6505 45.3457 70.8519 41.6387 77.247C43.0816 80.8583 44.3287 83.1183 44.8515 83.1183Z" fill="#CC2009"/>
<path d="M39.9823 32.1599C41.7115 32.1162 43.3133 40.0034 43.56 49.7764C43.8067 59.5495 42.6049 67.5074 40.8757 67.5511C39.1465 67.5947 37.5447 59.7075 37.298 49.9345C37.0513 40.1615 38.2531 32.2035 39.9823 32.1599Z" fill="#FF553E"/>
<path fill-rule="evenodd" clip-rule="evenodd" d="M39.6231 41.5281C40.1734 41.5746 40.5818 42.0584 40.5353 42.6087C40.3546 44.7475 40.4966 52.5539 40.8718 56.533C40.9237 57.0829 40.52 57.5706 39.9701 57.6225C39.4203 57.6743 38.9325 57.2706 38.8807 56.7208C38.4989 52.6733 38.3482 44.739 38.5424 42.4403C38.5889 41.89 39.0728 41.4816 39.6231 41.5281Z" fill="white"/>
<path fill-rule="evenodd" clip-rule="evenodd" d="M49.329 13.8467L49.3269 13.8508L49.3183 13.8679L49.2827 13.939C49.2514 14.002 49.2054 14.0952 49.1485 14.2124C49.0346 14.4474 48.878 14.7771 48.7082 15.1545C48.3599 15.9288 47.989 16.8315 47.7961 17.522C47.5487 18.4074 47.3968 19.6496 47.3102 20.7373C47.268 21.2674 47.243 21.7365 47.2286 22.0725C47.2215 22.2402 47.217 22.3739 47.2143 22.4647C47.2129 22.51 47.212 22.5446 47.2115 22.5672L47.2109 22.592L47.2108 22.5974C47.2108 22.5973 47.2108 22.5974 47.2108 22.5974C47.1951 23.4255 46.5111 24.0851 45.683 24.0695C44.8547 24.054 44.1958 23.37 44.2113 22.5417L45.711 22.5698C44.2113 22.5417 44.2113 22.5418 44.2113 22.5417L44.2114 22.5373L44.2116 22.5281L44.2124 22.4954C44.213 22.4673 44.2141 22.4271 44.2156 22.3758C44.2186 22.2733 44.2236 22.1263 44.2314 21.9442C44.247 21.5806 44.2739 21.0739 44.3197 20.4992C44.409 19.3773 44.5773 17.8938 44.9068 16.7147C45.1635 15.7959 45.6128 14.7229 45.9723 13.9237C46.1565 13.5144 46.3257 13.158 46.4491 12.9035C46.5109 12.7761 46.5615 12.6736 46.597 12.6023L46.6385 12.5192L46.65 12.4965L46.6547 12.4872C46.6547 12.4871 46.6548 12.4871 47.9763 13.159L46.6547 12.4872C47.0301 11.7488 47.9332 11.4543 48.6717 11.8298C49.4101 12.2052 49.7043 13.1082 49.329 13.8467Z" fill="#506A05"/>
<path d="M52.8729 52.1503C52.3309 52.8859 51.2952 53.0429 50.5595 52.5009C49.8239 51.9589 49.6669 50.9232 50.2089 50.1875C50.7509 49.4519 51.7866 49.2949 52.5223 49.8369C53.2579 50.3789 53.4149 51.4146 52.8729 52.1503Z" fill="#BB0202"/>
<path d="M53.6428 47.3745C53.174 48.0108 52.2781 48.1466 51.6417 47.6778C51.0054 47.209 50.8696 46.3131 51.3384 45.6767C51.8072 45.0404 52.7031 44.9046 53.3395 45.3734C53.9758 45.8422 54.1116 46.7381 53.6428 47.3745Z" fill="#BB0202"/>
<path d="M52.2019 56.6612C51.7331 57.2975 50.8372 57.4333 50.2008 56.9645C49.5645 56.4957 49.4287 55.5998 49.8975 54.9635C50.3663 54.3272 51.2622 54.1914 51.8986 54.6602C52.5349 55.129 52.6707 56.0249 52.2019 56.6612Z" fill="#BB0202"/>
<path d="M50.8986 42.3724C50.4298 43.0087 49.5339 43.1445 48.8976 42.6757C48.2613 42.2069 48.1255 41.311 48.5943 40.6747C49.0631 40.0383 49.959 39.9025 50.5953 40.3714C51.2317 40.8402 51.3675 41.7361 50.8986 42.3724Z" fill="#BB0202"/>
<path d="M52.6841 38.2045C52.3579 38.6473 51.7344 38.7418 51.2915 38.4156C50.8487 38.0893 50.7542 37.4658 51.0804 37.023C51.4067 36.5801 52.0302 36.4856 52.473 36.8119C52.9159 37.1381 53.0104 37.7616 52.6841 38.2045Z" fill="#BB0202"/>
<path d="M53.3811 42.9643C53.1382 43.294 52.674 43.3644 52.3444 43.1215C52.0147 42.8786 51.9443 42.4144 52.1872 42.0848C52.4301 41.7551 52.8943 41.6847 53.2239 41.9276C53.5536 42.1705 53.624 42.6347 53.3811 42.9643Z" fill="#BB0202"/>
<path d="M49.899 67.9861C49.5727 68.4289 48.9492 68.5234 48.5064 68.1972C48.0635 67.8709 47.969 67.2474 48.2953 66.8046C48.6215 66.3617 49.245 66.2672 49.6879 66.5935C50.1307 66.9197 50.2252 67.5432 49.899 67.9861Z" fill="#BB0202"/>
<path d="M51.7593 61.5125C51.433 61.9553 50.8096 62.0498 50.3667 61.7235C49.9239 61.3973 49.8294 60.7738 50.1556 60.3309C50.4819 59.8881 51.1054 59.7936 51.5482 60.1198C51.9911 60.4461 52.0856 61.0696 51.7593 61.5125Z" fill="#BB0202"/>
<path fill-rule="evenodd" clip-rule="evenodd" d="M45.8371 19.5745C43.5456 18.1296 38.0771 17.4509 34.5355 26.2948C36.3027 26.6567 38.8027 26.8281 41.0066 26.3028C40.9973 27.9833 41.4185 30.0361 42.4953 32.5194C44.4061 31.2455 46.9335 28.9105 47.8411 26.2874C49.228 27.5989 51.431 28.7468 54.8136 29.4164C54.8822 25.2615 53.2404 17.4711 46.1244 19.5479C46.0673 19.6919 46.0147 19.8457 45.9678 20.0079C45.9341 19.9783 45.8999 19.9486 45.8652 19.9191C45.858 19.806 45.8487 19.6911 45.8371 19.5745Z" fill="#B6EC1C"/>
<path fill-rule="evenodd" clip-rule="evenodd" d="M35.9623 25.5134C37.4544 25.6951 39.2123 25.7025 40.7747 25.3301C41.0733 25.2589 41.3881 25.3288 41.6285 25.5197C41.8689 25.7106 42.0082 26.0014 42.0065 26.3083C41.9996 27.564 42.2603 29.0997 42.9446 30.956C44.5482 29.6885 46.2351 27.8707 46.8961 25.9604C47.0072 25.6395 47.2735 25.3968 47.6034 25.3161C47.9332 25.2353 48.2815 25.3275 48.5283 25.5609C49.5803 26.5558 51.2345 27.5037 53.7826 28.1581C53.6667 26.3596 53.235 24.2482 52.3001 22.6502C51.7293 21.6746 51.0023 20.9423 50.0939 20.546C49.2903 20.1954 48.2527 20.0676 46.8963 20.3794C46.783 20.6628 46.5451 20.881 46.2485 20.9677C45.92 21.0638 45.5651 20.9852 45.3079 20.7592C45.2777 20.7327 45.247 20.7061 45.2159 20.6796C45.0668 20.5522 44.9596 20.385 44.9054 20.1997C43.9479 19.7345 42.5237 19.4661 40.9941 20.0172C39.4191 20.5846 37.5634 22.0836 35.9623 25.5134ZM46.0372 18.5335C44.6573 17.7845 42.5604 17.3271 40.3162 18.1356C37.865 19.0187 35.4446 21.3349 33.6072 25.9231C33.497 26.1982 33.5146 26.508 33.6551 26.769C33.7956 27.0299 34.0446 27.2151 34.3349 27.2745C35.8926 27.5935 38.0109 27.7787 40.0631 27.4947C40.2172 29.0751 40.6923 30.875 41.5779 32.9173C41.6958 33.1892 41.9282 33.3948 42.2125 33.4786C42.4967 33.5624 42.8035 33.5159 43.0501 33.3515C44.7355 32.2277 46.9734 30.2577 48.227 27.8903C49.749 28.9679 51.8329 29.8457 54.6195 30.3973C54.9102 30.4549 55.2114 30.3805 55.442 30.1943C55.6725 30.0081 55.8086 29.7292 55.8135 29.4329C55.8493 27.2639 55.4475 24.0694 54.0264 21.6403C53.3058 20.4086 52.2923 19.323 50.8936 18.7129C49.5312 18.1185 47.9121 18.0228 46.0372 18.5335Z" fill="#6F9602"/>
<path d="M42.0985 21.9755C42.3482 22.4681 41.9141 23.19 41.129 23.5879C40.3439 23.9859 39.505 23.9091 39.2553 23.4165C39.0056 22.9238 39.4397 22.2019 40.2248 21.804C41.01 21.4061 41.8488 21.4829 42.0985 21.9755Z" fill="#E3FF93"/>
</svg>
