<svg width="96" height="96" viewBox="0 0 96 96" fill="none" xmlns="http://www.w3.org/2000/svg">
<path d="M40 20.0377C43.2464 24.7472 41.8164 28.6415 40.6957 30C46.3536 28.4604 52.8696 29.3585 55.4203 30C52.5449 25.9245 54.6087 21.283 56 19.4717C52.7536 20.2868 50.8599 22.8302 50.3188 24C50.2261 21.3736 48.5797 18.9057 47.7681 18C46.4696 20.2642 45.9903 22.7925 45.913 23.7736C44.429 22.234 41.3527 20.6415 40 20.0377Z" fill="#D72424"/>
<path fill-rule="evenodd" clip-rule="evenodd" d="M39.0155 31.0849C38.5429 30.353 38.5985 29.3993 39.1529 28.7272C39.726 28.0326 41.0741 25.1198 38.3533 21.1729C37.8446 20.4349 37.889 19.4485 38.462 18.7592C39.035 18.0699 39.9967 17.8461 40.8152 18.2114C41.5564 18.5423 42.7324 19.1262 43.927 19.8343C44.155 19.9694 44.3892 20.1123 44.6256 20.262C44.9525 19.2255 45.4094 18.0927 46.0332 17.005C46.3526 16.448 46.92 16.0783 47.5586 16.011C48.1971 15.9437 48.8291 16.1871 49.2576 16.6653C49.7866 17.2556 50.502 18.2499 51.105 19.4666C51.1488 19.555 51.1924 19.6452 51.2355 19.7372C52.3436 18.8061 53.7664 17.9705 55.513 17.5319C56.3385 17.3246 57.2048 17.6626 57.6719 18.3742C58.1391 19.0857 58.1046 20.015 57.5861 20.69C57.062 21.3724 56.3487 22.691 56.0805 24.2302C55.8202 25.7235 55.9873 27.3344 57.0545 28.847C57.5367 29.5305 57.5427 30.4419 57.0694 31.1316C56.5962 31.8213 55.7437 32.1436 54.9325 31.9396C52.5622 31.3435 46.4232 30.5142 41.2208 31.9298C40.3801 32.1586 39.4881 31.8168 39.0155 31.0849ZM51.9818 21.7588C51.1278 22.5945 50.5735 23.4494 50.3188 24C50.2852 23.0485 50.0477 22.1179 49.7199 21.2747C49.5229 20.7681 49.2933 20.293 49.0556 19.8641C48.5972 19.0365 48.109 18.3804 47.7681 18C47.3827 18.672 47.0695 19.3673 46.8175 20.0385C46.6295 20.5393 46.4755 21.0268 46.3512 21.4812C46.0808 22.4693 45.9503 23.301 45.913 23.7736C45.4376 23.2803 44.7987 22.7816 44.1054 22.3118C43.8012 22.1057 43.4866 21.9051 43.1708 21.7129C41.9593 20.976 40.7292 20.3632 40 20.0378C40.7299 21.0966 41.2234 22.1143 41.5372 23.0712C42.1272 24.8704 42.0817 26.4549 41.7775 27.6944C41.524 28.7277 41.0906 29.5213 40.6957 30C41.5494 29.7677 42.4227 29.5909 43.299 29.4603C46.7798 28.9416 50.3074 29.1528 52.8431 29.5134C53.8993 29.6637 54.7834 29.8398 55.4203 30C54.893 29.2527 54.5319 28.4864 54.3022 27.7219C53.7174 25.776 53.9847 23.8424 54.5331 22.2665C54.9442 21.0855 55.5133 20.1054 56 19.4717C54.7641 19.782 53.7243 20.3428 52.8805 20.9829C52.551 21.2328 52.2515 21.4948 51.9818 21.7588Z" fill="#732533"/>
<path fill-rule="evenodd" clip-rule="evenodd" d="M40.6957 30C41.8164 28.6415 43.2464 24.7472 40 20.0377C40.6758 20.3394 41.782 20.8879 42.9048 21.5533C44.7009 25.1032 43.9383 28.0314 43.0478 29.499C42.256 29.6252 41.4678 29.7899 40.6957 30ZM48.7234 29.1644C51.5925 29.2462 54.0656 29.6593 55.4203 30C55.3161 29.8524 55.2184 29.704 55.127 29.555C53.3864 29.2923 51.1291 29.0935 48.7234 29.1644ZM55.1868 20.7603C55.457 20.2468 55.7402 19.8099 56 19.4717C54.2418 19.9131 52.8804 20.8615 51.9158 21.824C52.1396 22.5147 52.2924 23.2509 52.3188 24C52.6782 23.2231 53.6342 21.8403 55.1868 20.7603ZM48.9549 19.6856C48.5267 18.9421 48.0841 18.3526 47.7681 18C46.9042 19.5063 46.403 21.1295 46.1414 22.3362C46.8208 22.7989 47.4458 23.2889 47.913 23.7736C47.9714 23.0329 48.2588 21.4105 48.9549 19.6856Z" fill="#FE3434"/>
<path d="M72 53.0001C72 66.2549 61.2548 77.0001 48 77.0001C34.7452 77.0001 24 66.2549 24 53.0001C24 39.7452 34.7452 29.0001 48 29.0001C61.2548 29.0001 72 39.7452 72 53.0001Z" fill="#FE3434"/>
<path fill-rule="evenodd" clip-rule="evenodd" d="M74 53.0001C74 67.3595 62.3594 79.0001 48 79.0001C33.6406 79.0001 22 67.3595 22 53.0001C22 38.6407 33.6406 27.0001 48 27.0001C62.3594 27.0001 74 38.6407 74 53.0001ZM48 77.0001C61.2548 77.0001 72 66.2549 72 53.0001C72 39.7452 61.2548 29.0001 48 29.0001C34.7452 29.0001 24 39.7452 24 53.0001C24 66.2549 34.7452 77.0001 48 77.0001Z" fill="#732533"/>
<path fill-rule="evenodd" clip-rule="evenodd" d="M48 77.0001C61.2548 77.0001 72 66.2549 72 53.0001C72 39.7452 61.2548 29.0001 48 29.0001C42.314 29.0001 37.0898 30.9774 32.9776 34.2819C35.9648 32.2125 39.5908 31 43.5 31C53.7173 31 62 39.2828 62 49.5C62 59.7173 53.7173 68 43.5 68C33.2827 68 25 59.7173 25 49.5C25 47.2219 25.4118 45.0398 26.165 43.0244C24.7748 46.0623 24 49.4407 24 53.0001C24 66.2549 34.7452 77.0001 48 77.0001Z" fill="#D72424"/>
<path d="M64.8981 49.0204C64.8981 50.0832 64.0364 50.9449 62.9736 50.9449C61.9107 50.9449 61.0491 50.0832 61.0491 49.0204C61.0491 47.9575 61.9107 47.0959 62.9736 47.0959C64.0364 47.0959 64.8981 47.9575 64.8981 49.0204Z" fill="#B42222"/>
<path d="M69.5 51.698C69.5 52.7609 68.6384 53.6225 67.5755 53.6225C66.5126 53.6225 65.651 52.7609 65.651 51.698C65.651 50.6351 66.5126 49.7735 67.5755 49.7735C68.6384 49.7735 69.5 50.6351 69.5 51.698Z" fill="#B42222"/>
<path d="M68.5377 45.4434C68.5377 46.2405 67.8915 46.8867 67.0944 46.8867C66.2972 46.8867 65.651 46.2405 65.651 45.4434C65.651 44.6462 66.2972 44 67.0944 44C67.8915 44 68.5377 44.6462 68.5377 45.4434Z" fill="#B42222"/>
<path d="M68.3286 58.4337C68.3286 59.4966 67.467 60.3582 66.4041 60.3582C65.3412 60.3582 64.4796 59.4966 64.4796 58.4337C64.4796 57.3708 65.3412 56.5092 66.4041 56.5092C67.467 56.5092 68.3286 57.3708 68.3286 58.4337Z" fill="#B42222"/>
<path d="M63.7265 55.7561C63.7265 56.819 62.8649 57.6806 61.8021 57.6806C60.7392 57.6806 59.8776 56.819 59.8776 55.7561C59.8776 54.6932 60.7392 53.8316 61.8021 53.8316C62.8649 53.8316 63.7265 54.6932 63.7265 55.7561Z" fill="#B42222"/>
<path d="M66 64.5C66 65.8807 64.8807 67 63.5 67C62.1193 67 61 65.8807 61 64.5C61 63.1193 62.1193 62 63.5 62C64.8807 62 66 63.1193 66 64.5Z" fill="#B42222"/>
<path d="M59 61.5C59 62.3284 58.3284 63 57.5 63C56.6716 63 56 62.3284 56 61.5C56 60.6716 56.6716 60 57.5 60C58.3284 60 59 60.6716 59 61.5Z" fill="#B42222"/>
<path d="M53.6858 73.1143C53.6858 73.7613 53.1613 74.2857 52.5143 74.2857C51.8674 74.2857 51.3429 73.7613 51.3429 73.1143C51.3429 72.4673 51.8674 71.9429 52.5143 71.9429C53.1613 71.9429 53.6858 72.4673 53.6858 73.1143Z" fill="#B42222"/>
<path d="M61 70C61 71.1046 60.1046 72 59 72C57.8954 72 57 71.1046 57 70C57 68.8954 57.8954 68 59 68C60.1046 68 61 68.8954 61 70Z" fill="#B42222"/>
<path d="M57 66C57 66.5523 56.5523 67 56 67C55.4477 67 55 66.5523 55 66C55 65.4477 55.4477 65 56 65C56.5523 65 57 65.4477 57 66Z" fill="#B42222"/>
<path d="M44.4548 37.6632C46.123 40.5263 43.9939 44.8759 39.6992 47.3783C35.4045 49.8808 30.5705 49.5883 28.9023 46.7252C27.234 43.862 29.3631 39.5124 33.6578 37.01C37.9525 34.5076 42.7865 34.8 44.4548 37.6632Z" fill="#FF7878"/>
<path fill-rule="evenodd" clip-rule="evenodd" d="M36.0831 40.1547C36.6728 41.0887 36.3938 42.3239 35.4599 42.9136C34.7473 43.3636 34.1971 43.9081 33.7815 44.5492C33.1807 45.476 31.9422 45.7403 31.0154 45.1395C30.0885 44.5386 29.8242 43.3002 30.425 42.3733C31.1705 41.2234 32.1461 40.2755 33.3241 39.5315C34.2581 38.9418 35.4933 39.2208 36.0831 40.1547Z" fill="white"/>
</svg>
