<svg width="96" height="96" viewBox="0 0 96 96" fill="none" xmlns="http://www.w3.org/2000/svg">
<path d="M49.3048 31.276C48.0775 22.2378 40.807 23.6919 36.4447 18.8449C37.6732 21.8388 45.2178 30.0749 49.3048 31.276Z" fill="#73B40D"/>
<path fill-rule="evenodd" clip-rule="evenodd" d="M50.6084 32.7927C51.1226 32.3508 51.3778 31.6786 51.2866 31.0068C50.9417 28.467 50.1492 26.5219 48.9818 24.99C47.8234 23.4698 46.396 22.4898 45.0078 21.7328C44.3196 21.3575 43.6157 21.0241 42.9576 20.7149C42.9073 20.6913 42.8573 20.6678 42.8075 20.6444C42.1904 20.3547 41.6137 20.0839 41.0479 19.7884C39.8394 19.1571 38.7986 18.4705 37.9313 17.5069C37.2806 16.7839 36.2041 16.6339 35.3805 17.1515C34.557 17.6691 34.2252 18.7041 34.5944 19.604C35.0108 20.6188 35.8566 21.8737 36.8197 23.1103C37.8165 24.3902 39.0551 25.7964 40.3796 27.1379C41.7021 28.4774 43.1384 29.781 44.5347 30.8409C45.8912 31.8707 47.3633 32.7899 48.7409 33.1948C49.3913 33.3859 50.0943 33.2346 50.6084 32.7927ZM48.765 28.8648C48.9993 29.5749 49.1822 30.3731 49.3048 31.2759C48.6359 31.0794 47.8745 30.6944 47.0632 30.1748C44.7482 28.6921 42.028 26.1132 39.898 23.6887C38.2136 21.7714 36.8984 19.9506 36.4447 18.8448C37.8148 20.3672 39.4719 21.268 41.1384 22.0675C41.4094 22.1975 41.6805 22.3248 41.9507 22.4516C44.7821 23.7807 47.5103 25.0614 48.765 28.8648Z" fill="#436C02"/>
<path d="M50.0188 34.1842C51.2461 25.146 58.7409 20.7837 63.5879 21.7532C56.3174 22.7225 58.2562 31.9318 50.0188 34.1842Z" fill="#73B40D"/>
<path fill-rule="evenodd" clip-rule="evenodd" d="M48.7009 35.6885C48.196 35.2462 47.9466 34.5801 48.037 33.915C49.3906 23.9467 57.8015 18.5562 63.9801 19.792C64.9389 19.9837 65.6185 20.8407 65.5868 21.818C65.5551 22.7953 64.8214 23.6064 63.8522 23.7356C61.3496 24.0692 60.4398 25.6206 58.9276 28.4343L58.9094 28.4682C57.4563 31.172 55.5337 34.7496 50.5463 36.1133C49.8988 36.2904 49.2057 36.1308 48.7009 35.6885ZM50.4779 31.9231C50.281 32.6408 50.126 33.3946 50.0188 34.1841C50.839 33.9599 51.5583 33.6666 52.1959 33.3194C54.7921 31.9055 56.0327 29.5966 57.2098 27.4058C57.7987 26.3098 58.3717 25.2434 59.0906 24.3334C60.1259 23.0227 61.4639 22.0363 63.5879 21.7531C61.8755 21.4106 59.8327 21.7336 57.8525 22.6931C54.7172 24.2123 51.7389 27.3272 50.4779 31.9231Z" fill="#436C02"/>
<path fill-rule="evenodd" clip-rule="evenodd" d="M50.0163 17.8143C51.1209 17.8143 52.0163 18.7097 52.0163 19.8143V34.3553C52.0163 35.4598 51.1209 36.3553 50.0163 36.3553C48.9117 36.3553 48.0163 35.4598 48.0163 34.3553V19.8143C48.0163 18.7097 48.9117 17.8143 50.0163 17.8143Z" fill="#457003"/>
<path d="M41.2917 32.9014C30.0765 31.945 19.2403 41.0569 19.9649 52.2894C21.1282 72.8407 38.3834 80.1224 48.5622 80.1224C58.2561 80.1224 75.2208 73.2285 77.1595 52.2894C77.8842 41.0569 67.0478 31.945 55.8327 32.9014C52.8749 33.1536 49.5964 34.9357 48.5622 35.1198C47.528 34.9357 44.2495 33.1536 41.2917 32.9014Z" fill="#FF3A1A"/>
<path fill-rule="evenodd" clip-rule="evenodd" d="M79.1535 52.4461L79.151 52.4738C77.0892 74.7421 58.9568 82.1225 48.5622 82.1225C43.0632 82.1225 35.7704 80.1749 29.6667 75.5006C23.499 70.7772 18.5868 63.2943 17.9685 52.4102C17.1579 39.7614 29.2382 29.8663 41.4616 30.9087C43.2302 31.0595 45.0045 31.6531 46.3575 32.1661C46.8176 32.3406 47.2701 32.5223 47.6558 32.6772C47.8332 32.7485 47.9965 32.814 48.1399 32.8706C48.3026 32.9348 48.4422 32.9886 48.5622 33.0327C48.6821 32.9886 48.8218 32.9348 48.9845 32.8706C49.1279 32.814 49.2912 32.7485 49.4686 32.6772C49.8543 32.5223 50.3068 32.3406 50.7669 32.1661C52.1199 31.6531 53.8941 31.0595 55.6628 30.9087C67.8887 29.8661 79.9717 39.7656 79.1553 52.4182L79.1535 52.4461ZM48.5622 35.1198C48.2187 35.0587 47.6278 34.8213 46.8833 34.5223C45.3859 33.9209 43.2672 33.0699 41.2917 32.9014C30.0766 31.9451 19.2403 41.057 19.9649 52.2894C21.1282 72.8407 38.3834 80.1225 48.5622 80.1225C58.2561 80.1225 75.2208 73.2285 77.1595 52.2894C77.8842 41.057 67.0478 31.9451 55.8327 32.9014C53.8571 33.0699 51.7385 33.9209 50.2411 34.5223C49.4966 34.8213 48.9056 35.0587 48.5622 35.1198Z" fill="#A20505"/>
<path fill-rule="evenodd" clip-rule="evenodd" d="M24.5556 39.6059C28.6313 35.0817 34.9 32.3564 41.2917 32.9015C43.2673 33.0699 45.3859 33.9209 46.8833 34.5223C47.6278 34.8214 48.2188 35.0587 48.5622 35.1198C48.9057 35.0587 49.4966 34.8214 50.2411 34.5223C51.7385 33.9209 53.8572 33.0699 55.8327 32.9015C62.5968 32.3247 69.2231 35.4102 73.2584 40.4145C67.9976 37.7198 61.6689 36.2813 55.8328 36.779C53.8572 36.9475 51.7386 37.7984 50.2412 38.3999C49.4966 38.6989 48.9057 38.9363 48.5623 38.9974C48.2188 38.9363 47.6279 38.6989 46.8834 38.3999C45.386 37.7984 43.2673 36.9475 41.2918 36.779C35.2585 36.2645 29.4089 37.3843 24.5556 39.6059Z" fill="#E83214"/>
<path fill-rule="evenodd" clip-rule="evenodd" d="M29.2466 72.5599C34.4569 75.8285 40.2441 77.2143 44.6845 77.2143C54.3784 77.2143 71.3431 70.3203 73.2818 49.3812C73.6273 44.0258 71.3448 39.1524 67.6461 35.6224C73.5242 39.0391 77.6137 45.2475 77.1594 52.2894C75.2207 73.2285 58.256 80.1225 48.5621 80.1225C42.9782 80.1225 35.2648 77.9311 29.2466 72.5599Z" fill="#E83214"/>
<path d="M50.0162 30.7146C56.802 24.6613 58.7408 31.4472 65.0419 32.4165C61.8584 32.9983 53.2331 33.5071 50.0162 30.7146Z" fill="#8ED918"/>
<path fill-rule="evenodd" clip-rule="evenodd" d="M48.0162 30.7281C48.0123 30.1534 48.2559 29.6047 48.6848 29.2221C50.536 27.5708 52.2691 26.5999 54.0209 26.3162C55.8188 26.025 57.3325 26.5064 58.6057 27.1434C59.2281 27.4548 59.8239 27.8193 60.3694 28.1609C60.486 28.2339 60.6 28.3057 60.7124 28.3765C61.147 28.6501 61.5563 28.9078 61.9903 29.1584C63.0555 29.7736 64.1133 30.2501 65.346 30.4398C66.3111 30.5882 67.028 31.412 67.0417 32.3884C67.0554 33.3648 66.362 34.2084 65.4014 34.3839C63.6591 34.7023 60.5525 34.9853 57.4408 34.8283C55.8796 34.7496 54.2585 34.5574 52.7769 34.1778C51.3212 33.8047 49.8412 33.2111 48.7051 32.225C48.2711 31.8482 48.0201 31.3029 48.0162 30.7281ZM51.6418 29.4414C51.131 29.7812 50.591 30.2018 50.0162 30.7146C50.5111 31.1442 51.1339 31.4956 51.8453 31.7807C54.2051 32.7264 57.5387 32.9417 60.4041 32.8556C62.2898 32.799 63.9727 32.6119 65.0419 32.4165C63.4245 32.1677 62.0945 31.5356 60.8962 30.8359C60.4598 30.581 60.0408 30.3171 59.6317 30.0595C57.1592 28.5024 55.0499 27.1741 51.6418 29.4414Z" fill="#436C02"/>
<path d="M48.5619 31.4471C44.6845 26.6 40.3221 29.5082 32.0822 29.9929C35.475 31.9317 44.7852 33.4176 48.5619 31.4471Z" fill="#8ED918"/>
<path fill-rule="evenodd" clip-rule="evenodd" d="M50.519 31.8594C50.6422 31.2743 50.4972 30.6647 50.1237 30.1978C48.968 28.7531 47.6843 27.7799 46.205 27.2316C44.7524 26.6932 43.2695 26.6243 41.8188 26.7255C40.5977 26.8107 39.2712 27.0297 37.926 27.2517C37.7066 27.2879 37.4867 27.3242 37.2667 27.3601C35.6556 27.6223 33.9195 27.8814 31.9647 27.9964C31.0812 28.0484 30.3369 28.6749 30.1349 29.5366C29.933 30.3983 30.3214 31.2903 31.0899 31.7294C33.1295 32.8949 36.617 33.793 39.9515 34.1731C41.6546 34.3673 43.4073 34.4373 45.0179 34.3184C46.5953 34.202 48.1957 33.894 49.487 33.2203C50.0172 32.9437 50.3957 32.4445 50.519 31.8594ZM47.0176 29.9275C47.5455 30.3179 48.0578 30.817 48.5619 31.4471C47.9865 31.7474 47.2825 31.9674 46.4907 32.1177C43.6486 32.6574 39.6737 32.3004 36.4383 31.5378C34.6586 31.1183 33.1027 30.5761 32.0821 29.993C33.7066 29.8974 35.1803 29.7077 36.5294 29.5017C37.1321 29.4097 37.7098 29.3145 38.265 29.223C41.9515 28.6153 44.6429 28.1717 47.0176 29.9275Z" fill="#436C02"/>
<path d="M41.733 38.8529C43.7254 41.8175 41.7355 46.6434 37.2887 49.6319C32.8418 52.6203 27.6218 52.6397 25.6295 49.6751C23.6372 46.7105 25.627 41.8846 30.0739 38.8962C34.5208 35.9077 39.7407 35.8883 41.733 38.8529Z" fill="#FE7B7B"/>
<path fill-rule="evenodd" clip-rule="evenodd" d="M33.4756 41.2072C34.124 42.1014 33.9247 43.3519 33.0305 44.0003C32.3759 44.475 31.8835 45.0293 31.5259 45.6672C30.9857 46.6307 29.7667 46.9738 28.8032 46.4336C27.8398 45.8934 27.4967 44.6744 28.0369 43.711C28.6911 42.5441 29.5821 41.5599 30.6824 40.7621C31.5766 40.1136 32.8272 40.3129 33.4756 41.2072Z" fill="white"/>
<path d="M66.123 60.2944C65.4829 61.1631 64.2598 61.3485 63.3911 60.7085C62.5223 60.0684 62.3369 58.8453 62.977 57.9766C63.617 57.1078 64.8401 56.9224 65.7089 57.5625C66.5776 58.2025 66.763 59.4256 66.123 60.2944Z" fill="#BD1106"/>
<path d="M69.2241 66.7375C68.584 67.6062 67.3609 67.7916 66.4921 67.1516C65.6234 66.5115 65.438 65.2884 66.078 64.4197C66.7181 63.5509 67.9412 63.3655 68.81 64.0056C69.6787 64.6456 69.8641 65.8687 69.2241 66.7375Z" fill="#BD1106"/>
<path d="M71.5519 60.1282C71.0719 60.7798 70.1546 60.9189 69.503 60.4388C68.8514 59.9588 68.7124 59.0414 69.1924 58.3899C69.6725 57.7383 70.5898 57.5993 71.2414 58.0793C71.8929 58.5593 72.032 59.4767 71.5519 60.1282Z" fill="#BD1106"/>
<path d="M64.2961 71.8004C63.6561 72.6692 62.433 72.8546 61.5642 72.2145C60.6955 71.5745 60.5101 70.3514 61.1501 69.4826C61.7901 68.6139 63.0133 68.4285 63.882 69.0685C64.7508 69.7086 64.9362 70.9317 64.2961 71.8004Z" fill="#BD1106"/>
<path d="M62.4198 65.4528C61.7798 66.3216 60.5566 66.507 59.6879 65.8669C58.8191 65.2269 58.6337 64.0038 59.2738 63.135C59.9138 62.2663 61.137 62.0809 62.0057 62.7209C62.8744 63.361 63.0598 64.5841 62.4198 65.4528Z" fill="#BD1106"/>
<path d="M57.0138 74.7092C56.3737 75.578 55.1506 75.7634 54.2819 75.1233C53.4131 74.4833 53.2277 73.2602 53.8678 72.3914C54.5078 71.5227 55.7309 71.3373 56.5997 71.9773C57.4684 72.6174 57.6538 73.8405 57.0138 74.7092Z" fill="#BD1106"/>
<path d="M56.2522 68.5556C55.6121 69.4243 54.389 69.6097 53.5203 68.9697C52.6515 68.3296 52.4661 67.1065 53.1062 66.2378C53.7462 65.369 54.9693 65.1836 55.8381 65.8237C56.7068 66.4637 56.8922 67.6868 56.2522 68.5556Z" fill="#BD1106"/>
<path d="M49.3797 75.7523C48.8997 76.4038 47.9824 76.5429 47.3308 76.0628C46.6792 75.5828 46.5402 74.6654 47.0202 74.0139C47.5003 73.3623 48.4176 73.2233 49.0692 73.7033C49.7207 74.1833 49.8598 75.1007 49.3797 75.7523Z" fill="#BD1106"/>
</svg>
